<svg version="1.1" id="Layer_1" xmlns="http://www.w3.org/2000/svg" xmlns:xlink="http://www.w3.org/1999/xlink" x="0px" y="0px"
	 width="100%" viewBox="0 0 496 496" enable-background="new 0 0 496 496" xml:space="preserve">
<path fill="#000000" opacity="1.000000" stroke="none" 
	d="
M262.486206,217.531189 
	C270.108368,202.866074 277.560791,188.528793 284.986084,174.177475 
	C288.564636,167.260986 287.393280,165.329208 279.588379,165.324249 
	C245.424179,165.302551 211.259979,165.307190 177.095779,165.293701 
	C170.302673,165.291016 170.118042,165.111862 170.115494,158.249771 
	C170.112854,151.084702 170.168991,143.919617 170.188217,136.754517 
	C170.197983,133.112167 171.699463,131.617599 175.634491,131.597229 
	C228.789368,131.322052 281.939423,130.258331 335.098663,130.658920 
	C341.433319,130.706650 342.340942,132.135269 339.305054,137.787994 
	C320.941650,171.979813 302.499664,206.129440 284.147095,240.327057 
	C282.795044,242.846436 280.984009,243.969147 278.185638,243.949127 
	C270.353424,243.893082 262.518036,244.047653 254.688995,243.880737 
	C249.760223,243.775650 249.068558,242.484711 251.379959,238.080261 
	C254.940598,231.295349 258.655701,224.591492 262.486206,217.531189 
z"/>
<path fill="#000000" opacity="1.000000" stroke="none" 
	d="
M220.327515,199.394653 
	C223.015778,194.372162 225.600616,189.708664 227.978149,184.941742 
	C229.475006,181.940628 231.492462,180.509003 235.026230,180.622543 
	C242.348480,180.857819 249.683899,180.651062 257.013214,180.709442 
	C262.803528,180.755554 263.545135,182.013519 260.791870,187.265930 
	C250.975632,205.992538 241.101685,224.688889 231.264816,243.404709 
	C229.638855,246.498306 228.029282,249.603302 226.519455,252.754440 
	C224.607178,256.745575 225.737839,258.606476 230.254364,258.922363 
	C232.245026,259.061584 234.250717,259.004456 236.249573,259.005280 
	C252.575027,259.012024 268.901031,258.928864 285.225769,259.035431 
	C302.539917,259.148438 319.852570,259.526428 337.166595,259.584991 
	C340.975372,259.597900 342.535858,260.674652 342.403870,264.708832 
	C342.148071,272.529846 342.216736,280.368195 342.396790,288.193726 
	C342.480316,291.822937 341.169647,293.359375 337.488556,293.271393 
	C331.828400,293.136017 326.161804,293.283539 320.497925,293.289124 
	C273.354065,293.335449 226.210220,293.381561 179.066360,293.415039 
	C170.604202,293.421021 170.173737,292.748779 174.277786,285.086823 
	C189.530975,256.610168 204.845139,228.166153 220.327515,199.394653 
z"/>
<path fill="#000000" opacity="1.000000" stroke="none" 
	d="
M214.591736,355.811951 
	C214.982452,346.041229 213.128586,336.739960 214.574631,327.450592 
	C214.911728,325.285156 213.157516,322.118622 215.803589,321.136627 
	C218.824570,320.015503 222.790924,319.609222 225.448135,321.373413 
	C227.390533,322.662994 228.175293,322.069916 229.611832,321.456726 
	C236.513947,318.510712 243.427048,320.870056 247.116699,327.381927 
	C253.064499,337.879150 247.656601,351.759338 236.908096,353.754395 
	C233.217773,354.439362 230.166092,352.805939 226.328430,350.889374 
	C226.328430,355.742615 226.125488,360.000336 226.377487,364.230988 
	C226.727554,370.108276 222.581696,368.750153 219.291199,369.002960 
	C215.424316,369.300079 213.707932,367.654785 214.103439,363.745941 
	C214.354218,361.267609 214.432983,358.771820 214.591736,355.811951 
M226.892548,339.548920 
	C228.551819,342.816864 231.180405,343.754547 234.314087,342.031067 
	C237.323135,340.376099 237.184814,337.285248 236.465866,334.508270 
	C235.794098,331.913513 233.570587,330.855469 231.014633,331.293335 
	C227.409424,331.910980 226.264969,334.506073 226.435181,337.880432 
	C226.451721,338.208344 226.549927,338.532104 226.892548,339.548920 
z"/>
<path fill="#000000" opacity="1.000000" stroke="none" 
	d="
M210.271698,333.432434 
	C210.293274,336.038513 210.451752,338.216705 210.257767,340.363037 
	C209.353973,350.363739 199.315643,358.050659 187.971069,351.013214 
	C186.845886,355.671753 187.256989,360.270966 187.486710,364.782623 
	C187.691147,368.797913 185.491531,369.237152 182.526337,368.917999 
	C179.729797,368.616974 175.653473,370.438751 175.659515,365.044891 
	C175.674576,351.562469 175.603455,338.079651 175.693192,324.597839 
	C175.718063,320.862823 182.257019,318.873260 186.741760,321.322845 
	C187.687225,321.839264 187.972198,322.736755 189.517761,322.226288 
	C201.403183,318.300507 206.932114,321.240295 210.271698,333.432434 
M196.148315,332.173340 
	C195.554260,331.899780 194.985596,331.499420 194.361786,331.374573 
	C191.611191,330.823944 189.552155,331.644165 188.303329,334.347809 
	C187.015808,337.135223 187.605301,339.611786 189.637680,341.581268 
	C191.503983,343.389832 194.010437,343.438110 195.997467,341.866241 
	C198.210388,340.115631 199.117264,337.639679 197.891617,334.802948 
	C197.568848,334.055878 197.100128,333.371857 196.148315,332.173340 
z"/>
<path fill="#000000" opacity="1.000000" stroke="none" 
	d="
M354.979187,345.636536 
	C349.238464,353.561157 340.287109,356.004272 331.935425,352.215149 
	C324.894012,349.020508 321.102478,340.893280 322.988922,333.038116 
	C325.301086,323.410248 334.997375,318.066040 345.160400,320.818024 
	C354.107788,323.240845 359.035889,332.252045 356.468109,341.550049 
	C356.116882,342.821991 355.602844,344.049011 354.979187,345.636536 
M343.993408,333.660156 
	C342.231262,331.037842 339.838989,330.158295 337.246460,332.078491 
	C334.608063,334.032623 334.880157,337.072571 335.685608,339.826050 
	C336.374390,342.180756 338.324066,343.236511 340.751587,342.760254 
	C344.322357,342.059723 344.775513,339.300415 344.647003,336.293182 
	C344.619080,335.639679 344.448944,334.992249 343.993408,333.660156 
z"/>
<path fill="#000000" opacity="1.000000" stroke="none" 
	d="
M273.792053,320.786621 
	C284.360229,325.105103 288.351166,333.630981 284.705261,343.320648 
	C281.459381,351.947235 272.027008,355.981781 262.357422,352.879547 
	C254.279083,350.287842 249.889343,341.797882 251.916504,332.686401 
	C253.675903,324.778442 261.609192,319.237091 269.951691,320.119629 
	C271.107574,320.241913 272.247528,320.514893 273.792053,320.786621 
M269.966858,342.637878 
	C273.384094,341.014954 274.201721,338.225647 273.222931,334.843781 
	C272.643738,332.842560 271.307404,331.390869 269.028625,331.210083 
	C267.220337,331.066589 265.824158,331.808472 264.866974,333.325226 
	C262.401550,337.231903 264.497986,341.771118 269.966858,342.637878 
z"/>
<path fill="#000000" opacity="1.000000" stroke="none" 
	d="
M171.930084,348.124451 
	C172.223618,352.192657 170.634644,353.586395 166.944839,353.406128 
	C161.805695,353.154968 156.641830,353.449371 151.495285,353.291321 
	C149.320557,353.224518 146.147308,354.491516 145.241196,351.821228 
	C144.153091,348.614655 143.917099,345.005585 146.569946,341.947906 
	C149.456512,338.620880 153.068604,335.868317 155.128006,331.874939 
	C153.331177,329.850433 151.258621,330.466644 149.342026,330.649200 
	C146.227905,330.945862 144.642532,329.870544 144.740921,326.518677 
	C144.832611,323.395599 144.568375,320.424591 149.212250,320.625732 
	C154.353806,320.848419 159.516861,320.547760 164.662186,320.722076 
	C166.812012,320.794891 169.937149,319.485596 170.852921,322.296814 
	C171.855362,325.373993 172.171463,328.919006 169.630966,331.737091 
	C166.546860,335.158203 163.361008,338.487610 159.884644,342.215393 
	C162.563263,343.500458 164.898544,343.019043 167.106598,342.982330 
	C170.436478,342.926971 172.122971,344.269318 171.930084,348.124451 
z"/>
<path fill="#000000" opacity="1.000000" stroke="none" 
	d="
M306.783386,341.974243 
	C306.783966,331.365326 306.783966,321.252991 306.783966,311.654907 
	C307.614502,311.059082 307.736145,310.902100 307.879578,310.878784 
	C319.064423,309.059692 319.301208,309.259766 319.296265,320.607178 
	C319.292206,329.937347 319.080933,339.273224 319.347717,348.595490 
	C319.501587,353.972351 316.106110,353.270752 312.746857,353.375549 
	C309.213074,353.485748 306.310486,353.196503 306.763153,348.465759 
	C306.952698,346.484955 306.787018,344.470154 306.783386,341.974243 
z"/>
<path fill="#000000" opacity="1.000000" stroke="none" 
	d="
M301.339722,340.986450 
	C301.339264,343.313812 301.133759,345.172516 301.380432,346.969116 
	C302.065308,351.957581 300.212708,353.740509 295.057404,353.481232 
	C291.031311,353.278687 289.500916,352.222351 289.588043,348.035126 
	C289.816437,337.057709 289.720184,326.071747 289.620880,315.090424 
	C289.592438,311.944031 290.123657,309.724945 293.982117,310.418915 
	C297.047394,310.970245 301.737915,308.350525 301.436584,315.034790 
	C301.054779,323.503906 301.342224,332.003174 301.339722,340.986450 
z"/>
</svg>